<?xml version="1.0" encoding="UTF-8"?>
<svg id="artwork" xmlns="http://www.w3.org/2000/svg" viewBox="0 0 1080 250">
  <defs>
    <style>
      .cls-1 {
        fill: #8c3e96;
      }

      .cls-2 {
        fill: #19081c;
        fill-rule: evenodd;
      }
    </style>
  </defs>
  <g>
    <polygon class="cls-2" points="512.09 143.6 512.09 92.89 569.32 92.89 612.34 92.89 612.34 103.03 612.34 113.18 619.51 113.18 626.68 113.18 626.68 153.74 626.68 194.31 612.34 194.31 598 194.31 598 153.74 598 113.18 590.83 113.18 583.66 113.18 583.66 153.74 583.66 194.31 569.32 194.31 554.98 194.31 554.98 153.74 554.98 113.18 547.81 113.18 540.64 113.18 540.64 153.74 540.64 194.31 519.26 194.31 512.09 194.31 512.09 143.6"/>
    <polygon class="cls-2" points="978.96 62.47 978.96 52.33 1021.98 52.33 1065 52.33 1065 62.47 1065 72.61 1050.66 72.61 1036.32 72.61 1036.32 123.32 1036.32 174.02 1050.66 174.02 1065 174.02 1065 184.17 1065 194.31 1021.98 194.31 978.96 194.31 978.96 184.17 978.96 174.02 993.3 174.02 1007.64 174.02 1007.64 123.32 1007.64 72.61 993.3 72.61 978.96 72.61 978.96 62.47"/>
    <polygon class="cls-2" points="865.79 113.18 865.79 52.33 880.13 52.33 894.47 52.33 894.47 113.18 894.47 174.02 915.98 174.02 937.49 174.02 937.49 113.18 937.49 52.33 951.83 52.33 966.17 52.33 966.17 113.18 966.17 174.02 959 174.02 951.83 174.02 951.83 184.17 951.83 194.31 915.98 194.31 880.13 194.31 880.13 184.17 880.13 174.02 872.96 174.02 865.79 174.02 865.79 113.18"/>
    <path class="cls-2" d="M845.84,113.18h-7.17v-20.28h-71.7v20.28h-14.34v60.85h14.34v20.28h71.7v-20.28h14.34v-60.85h-7.17ZM824.33,143.6v30.42h-43.02v-60.85h43.02v30.42Z"/>
    <path class="cls-2" d="M732.67,113.18h-7.17v-20.28h-57.36v-40.57h-28.68v121.7h14.34v20.28h71.7v-20.28h14.34v-60.85h-7.17ZM711.16,143.6v30.42h-43.02v-60.85h43.02v30.42Z"/>
    <path class="cls-2" d="M492.14,113.18h-7.17v-20.28h-71.7v20.28h57.36v20.28h-57.36v20.28h-14.34v20.28h14.34v20.28h86.04v-81.13h-7.17ZM470.63,163.88v10.14h-43.02v-20.28h43.02v10.14Z"/>
    <polygon class="cls-2" points="328.51 62.47 328.51 52.33 371.53 52.33 414.55 52.33 414.55 62.47 414.55 72.61 400.21 72.61 385.87 72.61 385.87 133.46 385.87 194.31 371.53 194.31 357.19 194.31 357.19 133.46 357.19 72.61 342.85 72.61 328.51 72.61 328.51 62.47"/>
  </g>
  <g>
    <path class="cls-1" d="M148.79,109.24l-58.54-58.54c-3.8-3.8-9.97-3.8-13.77,0l-11.99,12.01c-3.8,3.8-3.79,9.96,0,13.76l32.77,32.77c3.8,3.8,3.8,9.96,0,13.76l-32.76,32.76c-3.8,3.8-3.8,9.96,0,13.76l11.99,11.99c3.8,3.8,9.96,3.8,13.76,0l12.88-12.87c3.96-3.96,10.74-1.15,10.74,4.45v8.3c0,5.37,4.36,9.73,9.73,9.73h88.69c5.37,0,9.73-4.36,9.73-9.73v-23.71c0-5.37-4.36-9.73-9.73-9.73h-73.43c-5.54,0-8.31-6.7-4.39-10.61l14.34-14.33c3.8-3.8,3.8-9.96,0-13.76Z"/>
    <path class="cls-1" d="M142.85,21.71c25.83,0,52.04,1.22,77.87,3.62,4.7.44,9.39,1.8,13.92,4.04,4.26,2.11,8.26,4.94,11.91,8.42h0s.02.03.02.03c3.66,3.5,6.68,7.4,8.97,11.58,2.45,4.48,4,9.14,4.6,13.86,2.54,20,3.83,40.29,3.83,60.29s-1.29,40.29-3.83,60.29c-.6,4.72-2.15,9.38-4.6,13.86-2.29,4.18-5.31,8.08-8.97,11.58h-.01s0,.01,0,.01c-3.65,3.48-7.66,6.32-11.93,8.43-4.54,2.25-9.22,3.61-13.92,4.05-25.83,2.4-52.03,3.62-77.87,3.62s-52.04-1.22-77.87-3.62c-4.7-.44-9.38-1.8-13.92-4.04-4.26-2.11-8.27-4.94-11.92-8.42h0s-.01-.02-.01-.02h-.01c-3.66-3.51-6.68-7.41-8.97-11.59-2.45-4.48-4-9.14-4.6-13.86-2.54-20-3.82-40.29-3.82-60.29s1.29-40.29,3.82-60.29c.6-4.72,2.15-9.38,4.6-13.86,2.29-4.18,5.3-8.07,8.97-11.58h0s0-.01,0-.01c3.65-3.48,7.66-6.32,11.93-8.43,4.54-2.25,9.22-3.61,13.92-4.05,25.83-2.4,52.03-3.62,77.87-3.62M142.85,5c-26.35,0-53.07,1.24-79.41,3.69-6.76.63-13.41,2.55-19.8,5.71-5.78,2.86-11.18,6.67-16.05,11.32l-.02.02-.02.02c-4.89,4.68-8.95,9.94-12.07,15.62-3.47,6.32-5.66,12.98-6.53,19.79-2.63,20.7-3.96,41.69-3.96,62.4s1.33,41.7,3.96,62.39c.86,6.81,3.06,13.47,6.53,19.79,3.11,5.68,7.17,10.94,12.07,15.62l.02.02.02.02c4.87,4.65,10.27,8.45,16.05,11.32,6.38,3.16,13.04,5.08,19.79,5.71,26.35,2.45,53.07,3.69,79.42,3.69s53.07-1.24,79.41-3.69c6.76-.63,13.41-2.55,19.8-5.71,5.78-2.86,11.18-6.67,16.05-11.32l.02-.02.02-.02c4.89-4.68,8.95-9.94,12.06-15.62,3.47-6.32,5.66-12.98,6.53-19.79,2.63-20.7,3.96-41.69,3.96-62.4s-1.33-41.7-3.96-62.39c-.86-6.81-3.06-13.47-6.53-19.79-3.11-5.68-7.17-10.94-12.07-15.62l-.02-.02-.02-.02c-4.87-4.65-10.27-8.45-16.05-11.32-6.38-3.16-13.04-5.08-19.79-5.71-26.35-2.45-53.07-3.69-79.42-3.69h0Z"/>
  </g>
</svg>