<?xml version="1.0" encoding="UTF-8"?>
<svg id="artwork" xmlns="http://www.w3.org/2000/svg" xmlns:xlink="http://www.w3.org/1999/xlink" viewBox="0 0 1080 250">
  <defs>
    <style>
      .cls-1 {
        fill: url(#linear-gradient-5);
      }

      .cls-1, .cls-2, .cls-3, .cls-4, .cls-5, .cls-6, .cls-7 {
        fill-rule: evenodd;
      }

      .cls-2 {
        fill: url(#linear-gradient-7);
      }

      .cls-3 {
        fill: url(#linear-gradient-2);
      }

      .cls-4 {
        fill: url(#linear-gradient-3);
      }

      .cls-5 {
        fill: url(#linear-gradient-4);
      }

      .cls-6 {
        fill: url(#linear-gradient-6);
      }

      .cls-8 {
        fill: url(#linear-gradient-8);
      }

      .cls-9 {
        fill: url(#linear-gradient-9);
      }

      .cls-10, .cls-11 {
        fill: #fff;
      }

      .cls-10, .cls-12 {
        opacity: .35;
      }

      .cls-7 {
        fill: url(#linear-gradient);
      }
    </style>
    <linearGradient id="linear-gradient" x1="319.87" y1="143.6" x2="1072.42" y2="143.6" gradientUnits="userSpaceOnUse">
      <stop offset=".05" stop-color="#81c786"/>
      <stop offset=".53" stop-color="#eee234"/>
      <stop offset="1" stop-color="#a93e88"/>
    </linearGradient>
    <linearGradient id="linear-gradient-2" x1="319.87" y1="123.32" x2="1072.42" y2="123.32" xlink:href="#linear-gradient"/>
    <linearGradient id="linear-gradient-3" x1="319.87" y1="123.32" x2="1072.42" y2="123.32" xlink:href="#linear-gradient"/>
    <linearGradient id="linear-gradient-4" x1="319.87" y1="143.6" x2="1072.42" y2="143.6" xlink:href="#linear-gradient"/>
    <linearGradient id="linear-gradient-5" x1="319.87" y1="123.32" x2="1072.42" y2="123.32" xlink:href="#linear-gradient"/>
    <linearGradient id="linear-gradient-6" x1="319.87" y1="143.6" x2="1072.42" y2="143.6" xlink:href="#linear-gradient"/>
    <linearGradient id="linear-gradient-7" x1="319.87" y1="123.32" x2="1072.42" y2="123.32" xlink:href="#linear-gradient"/>
    <linearGradient id="linear-gradient-8" x1="12.61" y1="30.95" x2="183.96" y2="202.29" xlink:href="#linear-gradient"/>
    <linearGradient id="linear-gradient-9" x1="31.43" y1="12.13" x2="202.77" y2="183.47" xlink:href="#linear-gradient"/>
  </defs>
  <g>
    <g>
      <polygon class="cls-7" points="512.09 143.6 512.09 92.89 569.32 92.89 612.34 92.89 612.34 103.03 612.34 113.18 619.51 113.18 626.68 113.18 626.68 153.74 626.68 194.31 612.34 194.31 598 194.31 598 153.74 598 113.18 590.83 113.18 583.66 113.18 583.66 153.74 583.66 194.31 569.32 194.31 554.98 194.31 554.98 153.74 554.98 113.18 547.81 113.18 540.64 113.18 540.64 153.74 540.64 194.31 519.26 194.31 512.09 194.31 512.09 143.6"/>
      <polygon class="cls-3" points="978.96 62.47 978.96 52.33 1021.98 52.33 1065 52.33 1065 62.47 1065 72.61 1050.66 72.61 1036.32 72.61 1036.32 123.32 1036.32 174.02 1050.66 174.02 1065 174.02 1065 184.17 1065 194.31 1021.98 194.31 978.96 194.31 978.96 184.17 978.96 174.02 993.3 174.02 1007.64 174.02 1007.64 123.32 1007.64 72.61 993.3 72.61 978.96 72.61 978.96 62.47"/>
      <polygon class="cls-4" points="865.79 113.18 865.79 52.33 880.13 52.33 894.47 52.33 894.47 113.18 894.47 174.02 915.98 174.02 937.49 174.02 937.49 113.18 937.49 52.33 951.83 52.33 966.17 52.33 966.17 113.18 966.17 174.02 959 174.02 951.83 174.02 951.83 184.17 951.83 194.31 915.98 194.31 880.13 194.31 880.13 184.17 880.13 174.02 872.96 174.02 865.79 174.02 865.79 113.18"/>
      <path class="cls-5" d="M845.84,113.18h-7.17v-20.28h-71.7v20.28h-14.34v60.85h14.34v20.28h71.7v-20.28h14.34v-60.85h-7.17ZM824.33,143.6v30.42h-43.02v-60.85h43.02v30.42Z"/>
      <path class="cls-1" d="M732.67,113.18h-7.17v-20.28h-57.36v-40.57h-28.68v121.7h14.34v20.28h71.7v-20.28h14.34v-60.85h-7.17ZM711.16,143.6v30.42h-43.02v-60.85h43.02v30.42Z"/>
      <path class="cls-6" d="M492.14,113.18h-7.17v-20.28h-71.7v20.28h57.36v20.28h-57.36v20.28h-14.34v20.28h14.34v20.28h86.04v-81.13h-7.17ZM470.63,163.88v10.14h-43.02v-20.28h43.02v10.14Z"/>
      <polygon class="cls-2" points="328.51 62.47 328.51 52.33 371.53 52.33 414.55 52.33 414.55 62.47 414.55 72.61 400.21 72.61 385.87 72.61 385.87 133.46 385.87 194.31 371.53 194.31 357.19 194.31 357.19 133.46 357.19 72.61 342.85 72.61 328.51 72.61 328.51 62.47"/>
    </g>
    <g class="cls-12">
      <path class="cls-11" d="M610.66,94.57v20.28h14.34v77.78h-25.33v-81.13h-17.69v81.13h-25.33v-81.13h-17.69v81.13h-25.2v-98.07h96.9M612.34,92.89h-100.25v101.41h28.55v-81.13h14.34v81.13h28.68v-81.13h14.34v81.13h28.68v-81.13h-14.34v-20.28h0Z"/>
      <path class="cls-11" d="M1063.33,54v16.94h-28.68v104.76h28.68v16.94h-82.69v-16.94h28.68v-104.76h-28.68v-16.94h82.69M1065,52.33h-86.04v20.28h28.68v101.41h-28.68v20.28h86.04v-20.28h-28.68v-101.41h28.68v-20.28h0Z"/>
      <path class="cls-11" d="M964.5,54v118.35h-14.34v20.28h-68.35v-20.28h-14.34V54h25.33v121.7h46.37V54h25.33M966.17,52.33h-28.68v121.7h-43.02V52.33h-28.68v121.7h14.34v20.28h71.7v-20.28h14.34V52.33h0Z"/>
      <path class="cls-11" d="M836.99,94.57v20.28h14.34v57.5h-14.34v20.28h-68.35v-20.28h-14.34v-57.5h14.34v-20.28h68.35M779.63,175.7h46.37v-64.2h-46.37v64.2M838.67,92.89h-71.7v20.28h-14.34v60.85h14.34v20.28h71.7v-20.28h14.34v-60.85h-14.34v-20.28h0ZM781.31,174.02v-60.85h43.02v60.85h-43.02Z"/>
      <path class="cls-11" d="M666.47,54v40.57h57.36v20.28h14.34v57.5h-14.34v20.28h-68.35v-20.28h-14.34V54h25.33M666.47,175.7h46.37v-64.2h-46.37v64.2M668.14,52.33h-28.68v121.7h14.34v20.28h71.7v-20.28h14.34v-60.85h-14.34v-20.28h-57.36v-40.57h0ZM668.14,174.02v-60.85h43.02v60.85h-43.02Z"/>
      <path class="cls-11" d="M483.29,94.57v20.28h14.34v77.78h-82.69v-20.28h-14.34v-16.94h14.34v-20.28h57.36v-23.63h-57.36v-16.94h68.35M425.93,175.7h46.37v-23.63h-46.37v23.63M484.97,92.89h-71.7v20.28h57.36v20.28h-57.36v20.28h-14.34v20.28h14.34v20.28h86.04v-81.13h-14.34v-20.28h0ZM427.6,174.02v-20.28h43.02v20.28h-43.02Z"/>
      <path class="cls-11" d="M412.88,54v16.94h-28.68v121.7h-25.33v-121.7h-28.68v-16.94h82.69M414.55,52.33h-86.04v20.28h28.68v121.7h28.68v-121.7h28.68v-20.28h0Z"/>
    </g>
  </g>
  <g>
    <g>
      <path class="cls-8" d="M148.79,109.24l-58.54-58.54c-3.8-3.8-9.97-3.8-13.77,0l-11.99,12.01c-3.8,3.8-3.79,9.96,0,13.76l32.77,32.77c3.8,3.8,3.8,9.96,0,13.76l-32.76,32.76c-3.8,3.8-3.8,9.96,0,13.76l11.99,11.99c3.8,3.8,9.96,3.8,13.76,0l12.88-12.87c3.96-3.96,10.74-1.15,10.74,4.45v8.3c0,5.37,4.36,9.73,9.73,9.73h88.69c5.37,0,9.73-4.36,9.73-9.73v-23.71c0-5.37-4.36-9.73-9.73-9.73h-73.43c-5.54,0-8.31-6.7-4.39-10.61l14.34-14.33c3.8-3.8,3.8-9.96,0-13.76Z"/>
      <path class="cls-9" d="M142.85,21.71c25.83,0,52.04,1.22,77.87,3.62,4.7.44,9.39,1.8,13.92,4.04,4.26,2.11,8.26,4.94,11.91,8.42h0s.02.03.02.03c3.66,3.5,6.68,7.4,8.97,11.58,2.45,4.48,4,9.14,4.6,13.86,2.54,20,3.83,40.29,3.83,60.29s-1.29,40.29-3.83,60.29c-.6,4.72-2.15,9.38-4.6,13.86-2.29,4.18-5.31,8.08-8.97,11.58h-.01s0,.01,0,.01c-3.65,3.48-7.66,6.32-11.93,8.43-4.54,2.25-9.22,3.61-13.92,4.05-25.83,2.4-52.03,3.62-77.87,3.62s-52.04-1.22-77.87-3.62c-4.7-.44-9.38-1.8-13.92-4.04-4.26-2.11-8.27-4.94-11.92-8.42h0s-.01-.02-.01-.02h-.01c-3.66-3.51-6.68-7.41-8.97-11.59-2.45-4.48-4-9.14-4.6-13.86-2.54-20-3.82-40.29-3.82-60.29s1.29-40.29,3.82-60.29c.6-4.72,2.15-9.38,4.6-13.86,2.29-4.18,5.3-8.07,8.97-11.58h0s0-.01,0-.01c3.65-3.48,7.66-6.32,11.93-8.43,4.54-2.25,9.22-3.61,13.92-4.05,25.83-2.4,52.03-3.62,77.87-3.62ZM142.85,5c-26.35,0-53.07,1.24-79.41,3.69-6.76.63-13.41,2.55-19.8,5.71-5.78,2.86-11.18,6.67-16.05,11.32l-.02.02-.02.02c-4.89,4.68-8.95,9.94-12.07,15.62-3.47,6.32-5.66,12.98-6.53,19.79-2.63,20.7-3.96,41.69-3.96,62.4s1.33,41.7,3.96,62.39c.86,6.81,3.06,13.47,6.53,19.79,3.11,5.68,7.17,10.94,12.07,15.62l.02.02.02.02c4.87,4.65,10.27,8.45,16.05,11.32,6.38,3.16,13.04,5.08,19.79,5.71,26.35,2.45,53.07,3.69,79.42,3.69s53.07-1.24,79.41-3.69c6.76-.63,13.41-2.55,19.8-5.71,5.78-2.86,11.18-6.67,16.05-11.32l.02-.02.02-.02c4.89-4.68,8.95-9.94,12.06-15.62,3.47-6.32,5.66-12.98,6.53-19.79,2.63-20.7,3.96-41.69,3.96-62.4s-1.33-41.7-3.96-62.39c-.86-6.81-3.06-13.47-6.53-19.79-3.11-5.68-7.17-10.94-12.07-15.62l-.02-.02-.02-.02c-4.87-4.65-10.27-8.45-16.05-11.32-6.38-3.16-13.04-5.08-19.79-5.71-26.35-2.45-53.07-3.69-79.42-3.69h0Z"/>
    </g>
    <path class="cls-10" d="M83.37,48.85c2.33,0,4.52.91,6.17,2.56l58.54,58.54c1.65,1.65,2.56,3.84,2.56,6.18,0,2.33-.91,4.53-2.56,6.17l-14.34,14.33c-2.1,2.1-2.7,5.12-1.57,7.86,1.14,2.75,3.69,4.45,6.67,4.45h73.43c4.81,0,8.73,3.92,8.73,8.73v23.71c0,4.81-3.92,8.73-8.73,8.73h-88.69c-4.81,0-8.73-3.92-8.73-8.73v-8.3c0-4.57-3.73-7.3-7.33-7.3-1.91,0-3.72.76-5.11,2.15l-12.88,12.87c-1.65,1.65-3.84,2.56-6.17,2.56s-4.53-.91-6.17-2.56l-11.99-11.99c-3.4-3.4-3.4-8.94,0-12.35l32.76-32.76c2.03-2.03,3.14-4.72,3.14-7.59,0-2.87-1.12-5.56-3.14-7.59l-32.77-32.77c-3.4-3.4-3.4-8.94,0-12.34l11.99-12.01c1.65-1.65,3.84-2.56,6.18-2.56M83.37,47.86c-2.49,0-4.98.95-6.89,2.85l-11.99,12.01c-3.8,3.8-3.79,9.96,0,13.76l32.77,32.77c3.8,3.8,3.8,9.96,0,13.76l-32.76,32.76c-3.8,3.8-3.8,9.96,0,13.76l11.99,11.99c1.9,1.9,4.39,2.85,6.88,2.85s4.98-.95,6.88-2.85l12.88-12.87c1.28-1.28,2.86-1.85,4.4-1.85,3.23,0,6.34,2.51,6.34,6.3v8.3c0,5.37,4.36,9.73,9.73,9.73h88.69c5.37,0,9.73-4.36,9.73-9.73v-23.71c0-5.37-4.36-9.73-9.73-9.73h-73.43c-5.54,0-8.31-6.7-4.39-10.61l14.34-14.33c3.8-3.8,3.8-9.96,0-13.76l-58.54-58.54c-1.9-1.9-4.39-2.85-6.88-2.85h0Z"/>
    <path class="cls-10" d="M142.85,6c26.32,0,53.01,1.24,79.33,3.68,6.63.62,13.17,2.5,19.44,5.61,5.69,2.82,11.01,6.57,15.81,11.14h.01s.02.03.02.03c4.82,4.61,8.82,9.79,11.88,15.38,3.41,6.21,5.56,12.75,6.41,19.44,2.62,20.66,3.95,41.61,3.95,62.27s-1.33,41.61-3.95,62.27c-.85,6.69-3.01,13.23-6.41,19.44-3.07,5.59-7.06,10.76-11.88,15.38h-.01s-.02.03-.02.03c-4.8,4.58-10.11,8.33-15.8,11.14-6.27,3.11-12.81,4.99-19.44,5.61-26.31,2.44-53,3.68-79.32,3.68s-53.01-1.24-79.33-3.68c-6.63-.62-13.17-2.5-19.44-5.61-5.69-2.82-11.01-6.57-15.8-11.14l-.02-.02-.02-.02c-4.82-4.61-8.82-9.79-11.88-15.38-3.41-6.21-5.56-12.75-6.41-19.44-2.62-20.65-3.95-41.61-3.95-62.27s1.33-41.61,3.95-62.27c.85-6.69,3.01-13.23,6.41-19.44,3.07-5.59,7.06-10.77,11.88-15.38l.03-.03h0c4.8-4.58,10.11-8.33,15.8-11.14,6.27-3.11,12.81-4.99,19.44-5.61,26.32-2.44,53-3.68,79.32-3.68M142.85,5c-26.35,0-53.07,1.24-79.41,3.69-6.76.63-13.41,2.55-19.8,5.71-5.78,2.86-11.18,6.67-16.05,11.32l-.02.02-.02.02c-4.89,4.68-8.95,9.94-12.07,15.62-3.47,6.32-5.66,12.98-6.53,19.79-2.63,20.7-3.96,41.69-3.96,62.4s1.33,41.7,3.96,62.39c.86,6.81,3.06,13.47,6.53,19.79,3.11,5.68,7.17,10.94,12.07,15.62l.02.02.02.02c4.87,4.65,10.27,8.45,16.05,11.32,6.38,3.16,13.04,5.08,19.79,5.71,26.35,2.45,53.07,3.69,79.42,3.69s53.07-1.24,79.41-3.69c6.76-.63,13.41-2.55,19.8-5.71,5.78-2.86,11.18-6.67,16.05-11.32l.02-.02.02-.02c4.89-4.68,8.95-9.94,12.06-15.62,3.47-6.32,5.66-12.98,6.53-19.79,2.63-20.7,3.96-41.69,3.96-62.4s-1.33-41.7-3.96-62.39c-.86-6.81-3.06-13.47-6.53-19.79-3.11-5.68-7.17-10.94-12.07-15.62l-.02-.02-.02-.02c-4.87-4.65-10.27-8.45-16.05-11.32-6.38-3.16-13.04-5.08-19.79-5.71-26.35-2.45-53.07-3.69-79.42-3.69h0Z"/>
    <path class="cls-10" d="M142.85,21.71c25.83,0,52.04,1.22,77.87,3.62,4.7.44,9.39,1.8,13.92,4.04,4.26,2.11,8.26,4.94,11.91,8.42h0s.02.03.02.03c3.66,3.5,6.68,7.4,8.97,11.58,2.45,4.48,4,9.14,4.6,13.86,2.54,20,3.83,40.29,3.83,60.29s-1.29,40.29-3.83,60.29c-.6,4.72-2.15,9.38-4.6,13.86-2.29,4.18-5.31,8.08-8.97,11.58h-.01s0,.01,0,.01c-3.65,3.48-7.66,6.32-11.93,8.43-4.54,2.25-9.22,3.61-13.92,4.05-25.83,2.4-52.03,3.62-77.87,3.62s-52.04-1.22-77.87-3.62c-4.7-.44-9.38-1.8-13.92-4.04-4.26-2.11-8.27-4.94-11.92-8.42h0s-.01-.02-.01-.02h-.01c-3.66-3.51-6.68-7.41-8.97-11.59-2.45-4.48-4-9.14-4.6-13.86-2.54-20-3.82-40.29-3.82-60.29s1.29-40.29,3.82-60.29c.6-4.72,2.15-9.38,4.6-13.86,2.29-4.18,5.3-8.07,8.97-11.58h0s0-.01,0-.01c3.65-3.48,7.66-6.32,11.93-8.43,4.54-2.25,9.22-3.61,13.92-4.05,25.83-2.4,52.03-3.62,77.87-3.62M142.85,20.71c-25.87,0-52.1,1.22-77.96,3.62-4.83.45-9.63,1.84-14.27,4.14-4.36,2.16-8.46,5.05-12.18,8.6-3.75,3.59-6.83,7.57-9.17,11.84-2.52,4.59-4.1,9.37-4.72,14.22-2.54,20.04-3.83,40.37-3.83,60.42s1.29,40.37,3.83,60.42c.62,4.85,2.2,9.63,4.72,14.22,2.34,4.27,5.42,8.25,9.15,11.82l.72-.7-.7.72c3.73,3.55,7.82,6.44,12.17,8.6,4.65,2.3,9.45,3.7,14.27,4.14,25.87,2.4,52.1,3.62,77.96,3.62s52.1-1.22,77.96-3.62c4.83-.45,9.63-1.84,14.27-4.14,4.36-2.16,8.46-5.05,12.18-8.6h0s.02-.02.02-.02c3.73-3.57,6.81-7.55,9.15-11.82,2.52-4.59,4.1-9.37,4.72-14.22,2.54-20.04,3.83-40.37,3.83-60.42s-1.29-40.37-3.83-60.42c-.62-4.85-2.2-9.63-4.72-14.22-2.34-4.27-5.42-8.25-9.15-11.82l-.02-.02c-3.73-3.55-7.82-6.44-12.17-8.6-4.65-2.3-9.45-3.7-14.27-4.14-25.87-2.4-52.1-3.62-77.96-3.62h0Z"/>
  </g>
</svg>