<?xml version="1.0" encoding="UTF-8"?>
<svg id="artwork" xmlns="http://www.w3.org/2000/svg" viewBox="0 0 1024 880">
  <defs>
    <style>
      .cls-1 {
        fill: #8c3e96;
      }
    </style>
  </defs>
  <path class="cls-1" d="M533.65,389.62l-213.18-213.18c-13.84-13.84-36.29-13.84-50.13.02l-43.68,43.74c-13.82,13.84-13.81,36.26.02,50.09l119.34,119.34c13.84,13.84,13.84,36.27,0,50.11l-119.32,119.32c-13.84,13.84-13.84,36.27,0,50.11l43.65,43.65c13.84,13.84,36.27,13.84,50.1,0l46.91-46.89c14.43-14.43,39.1-4.2,39.1,16.2v30.23c0,19.57,15.86,35.43,35.43,35.43h322.97c19.57,0,35.43-15.86,35.43-35.43v-86.36c0-19.57-15.86-35.43-35.43-35.43h-267.43c-20.17,0-30.27-24.39-16-38.65l52.21-52.19c13.84-13.84,13.85-36.28,0-50.12Z"/>
  <path class="cls-1" d="M512,70.86c94.08,0,189.5,4.43,283.58,13.17,17.12,1.59,34.18,6.55,50.7,14.73,15.51,7.68,30.09,17.98,43.39,30.65l.02.02.09.09c13.32,12.75,24.31,26.95,32.66,42.18,8.94,16.3,14.58,33.29,16.76,50.48,9.24,72.84,13.93,146.71,13.93,219.56s-4.69,146.72-13.93,219.56c-2.18,17.19-7.82,34.18-16.76,50.48-8.35,15.23-19.34,29.42-32.66,42.18l-.04.04h-.01c-13.29,12.69-27.9,23.02-43.45,30.71-16.52,8.18-33.59,13.14-50.71,14.73-94.08,8.74-189.49,13.17-283.57,13.17s-189.5-4.43-283.58-13.17c-17.12-1.59-34.18-6.55-50.7-14.73-15.52-7.69-30.12-18-43.39-30.65h-.01s-.05-.06-.05-.06l-.04-.04c-13.32-12.75-24.31-26.95-32.66-42.18-8.94-16.3-14.58-33.29-16.76-50.48-9.24-72.84-13.93-146.71-13.93-219.56s4.69-146.72,13.93-219.56c2.18-17.19,7.82-34.18,16.76-50.48,8.34-15.22,19.32-29.39,32.67-42.19h.01s.03-.04.03-.04c13.29-12.68,27.9-23.01,43.45-30.7,16.52-8.18,33.59-13.14,50.71-14.73,94.08-8.74,189.49-13.17,283.57-13.17ZM512,10c-95.96,0-193.26,4.52-289.2,13.43-24.61,2.29-48.85,9.28-72.09,20.79-21.05,10.42-40.72,24.29-58.45,41.21l-.06.06-.06.06c-17.81,17.06-32.6,36.19-43.94,56.88-12.63,23.03-20.62,47.28-23.77,72.08-9.56,75.38-14.41,151.82-14.41,227.23s4.85,151.85,14.41,227.22c3.15,24.81,11.15,49.06,23.77,72.08,11.34,20.69,26.13,39.82,43.94,56.88l.07.06.07.06c17.73,16.92,37.4,30.78,58.45,41.21,23.24,11.51,47.48,18.5,72.07,20.79,95.96,8.91,193.26,13.43,289.22,13.43s193.26-4.52,289.2-13.43c24.6-2.29,48.85-9.28,72.09-20.79,21.05-10.42,40.72-24.29,58.45-41.21l.07-.06.07-.06c17.81-17.06,32.59-36.19,43.94-56.88,12.63-23.03,20.63-47.28,23.77-72.08,9.56-75.37,14.41-151.82,14.41-227.22s-4.85-151.85-14.41-227.22c-3.15-24.8-11.15-49.05-23.77-72.08-11.34-20.69-26.13-39.82-43.94-56.88l-.07-.06-.07-.06c-17.73-16.92-37.4-30.78-58.45-41.21-23.24-11.51-47.48-18.5-72.07-20.79-95.97-8.91-193.27-13.43-289.22-13.43h0Z"/>
</svg>