<?xml version="1.0" encoding="UTF-8"?>
<svg id="artwork" xmlns="http://www.w3.org/2000/svg" viewBox="0 0 1080 875">
  <defs>
    <style>
      .cls-1 {
        fill: #8c3e96;
      }

      .cls-2 {
        fill: #19081c;
        fill-rule: evenodd;
      }
    </style>
  </defs>
  <g>
    <polygon class="cls-2" points="269.22 789.32 269.22 716.34 351.58 716.34 413.5 716.34 413.5 730.94 413.5 745.53 423.82 745.53 434.14 745.53 434.14 803.92 434.14 862.3 413.5 862.3 392.86 862.3 392.86 803.92 392.86 745.53 382.54 745.53 372.22 745.53 372.22 803.92 372.22 862.3 351.58 862.3 330.94 862.3 330.94 803.92 330.94 745.53 320.62 745.53 310.3 745.53 310.3 803.92 310.3 862.3 279.54 862.3 269.22 862.3 269.22 789.32"/>
    <polygon class="cls-2" points="941.16 672.55 941.16 657.95 1003.08 657.95 1065 657.95 1065 672.55 1065 687.15 1044.36 687.15 1023.72 687.15 1023.72 760.13 1023.72 833.11 1044.36 833.11 1065 833.11 1065 847.7 1065 862.3 1003.08 862.3 941.16 862.3 941.16 847.7 941.16 833.11 961.8 833.11 982.44 833.11 982.44 760.13 982.44 687.15 961.8 687.15 941.16 687.15 941.16 672.55"/>
    <polygon class="cls-2" points="778.29 745.53 778.29 657.95 798.93 657.95 819.57 657.95 819.57 745.53 819.57 833.11 850.53 833.11 881.49 833.11 881.49 745.53 881.49 657.95 902.13 657.95 922.76 657.95 922.76 745.53 922.76 833.11 912.44 833.11 902.13 833.11 902.13 847.7 902.13 862.3 850.53 862.3 798.93 862.3 798.93 847.7 798.93 833.11 788.61 833.11 778.29 833.11 778.29 745.53"/>
    <path class="cls-2" d="M749.57,745.53h-10.32v-29.19h-103.2v29.19h-20.64v87.58h20.64v29.19h103.2v-29.19h20.64v-87.58h-10.32ZM718.61,789.32v43.79h-61.92v-87.58h61.92v43.79Z"/>
    <path class="cls-2" d="M586.7,745.53h-10.32v-29.19h-82.56v-58.38h-41.28v175.15h20.64v29.19h103.2v-29.19h20.64v-87.58h-10.32ZM555.74,789.32v43.79h-61.92v-87.58h61.92v43.79Z"/>
    <path class="cls-2" d="M240.5,745.53h-10.32v-29.19h-103.2v29.19h82.56v29.19h-82.56v29.19h-20.64v29.19h20.64v29.19h123.84v-116.77h-10.32ZM209.54,818.51v14.6h-61.92v-29.19h61.92v14.6Z"/>
    <polygon class="cls-2" points="5 672.55 5 657.95 66.92 657.95 128.84 657.95 128.84 672.55 128.84 687.15 108.2 687.15 87.56 687.15 87.56 774.72 87.56 862.3 66.92 862.3 46.28 862.3 46.28 774.72 46.28 687.15 25.64 687.15 5 687.15 5 672.55"/>
  </g>
  <g>
    <path class="cls-1" d="M549.35,256.53l-141.25-141.25c-9.17-9.17-24.05-9.17-33.21.01l-28.94,28.98c-9.16,9.17-9.15,24.03.01,33.19l79.07,79.07c9.17,9.17,9.17,24.03,0,33.2l-79.06,79.06c-9.17,9.17-9.17,24.03,0,33.2l28.92,28.92c9.17,9.17,24.03,9.17,33.2,0l31.08-31.07c9.56-9.56,25.91-2.79,25.91,10.74v20.03c0,12.97,10.51,23.48,23.48,23.48h213.99c12.97,0,23.48-10.51,23.48-23.48v-57.22c0-12.97-10.51-23.48-23.48-23.48h-177.19c-13.37,0-20.06-16.16-10.6-25.61l34.6-34.58c9.17-9.17,9.17-24.04,0-33.21Z"/>
    <path class="cls-1" d="M535,45.33c62.34,0,125.56,2.94,187.9,8.72,11.34,1.06,22.65,4.34,33.59,9.76,10.28,5.09,19.94,11.91,28.75,20.31h.01s.06.07.06.07c8.83,8.45,16.11,17.85,21.64,27.95,5.92,10.8,9.66,22.06,11.11,33.45,6.12,48.26,9.23,97.21,9.23,145.48s-3.11,97.21-9.23,145.48c-1.45,11.39-5.18,22.64-11.11,33.45-5.53,10.09-12.82,19.5-21.64,27.95l-.03.03h0c-8.8,8.41-18.49,15.25-28.79,20.35-10.95,5.42-22.25,8.7-33.6,9.76-62.34,5.79-125.55,8.72-187.89,8.72s-125.56-2.94-187.9-8.72c-11.34-1.06-22.64-4.34-33.59-9.76-10.28-5.09-19.96-11.93-28.75-20.31h0s-.03-.04-.03-.04l-.03-.03c-8.83-8.45-16.11-17.85-21.64-27.95-5.92-10.8-9.66-22.06-11.11-33.45-6.12-48.26-9.23-97.21-9.23-145.48s3.11-97.22,9.23-145.48c1.45-11.39,5.18-22.64,11.11-33.45,5.53-10.08,12.8-19.47,21.65-27.95h0s.02-.03.02-.03c8.8-8.4,18.49-15.24,28.79-20.34,10.95-5.42,22.25-8.7,33.6-9.76,62.34-5.79,125.55-8.72,187.89-8.72M535,5c-63.58,0-128.05,2.99-191.62,8.9-16.3,1.52-32.37,6.15-47.76,13.78-13.95,6.91-26.98,16.09-38.73,27.3l-.04.04-.04.04c-11.8,11.3-21.6,23.98-29.11,37.69-8.37,15.26-13.67,31.32-15.75,47.76-6.34,49.94-9.55,100.6-9.55,150.56s3.21,100.61,9.55,150.55c2.09,16.44,7.39,32.5,15.75,47.76,7.52,13.71,17.31,26.39,29.11,37.69l.04.04.04.04c11.75,11.21,24.78,20.4,38.73,27.3,15.4,7.62,31.46,12.26,47.75,13.77,63.58,5.9,128.05,8.9,191.63,8.9s128.05-2.99,191.62-8.9c16.3-1.52,32.37-6.15,47.76-13.78,13.95-6.91,26.98-16.09,38.73-27.3l.04-.04.04-.04c11.8-11.3,21.6-23.98,29.11-37.68,8.37-15.26,13.67-31.33,15.75-47.76,6.34-49.94,9.55-100.59,9.55-150.55s-3.21-100.61-9.55-150.55c-2.09-16.43-7.39-32.5-15.75-47.76-7.52-13.71-17.31-26.39-29.11-37.69l-.04-.04-.04-.04c-11.75-11.21-24.78-20.4-38.73-27.3-15.4-7.62-31.46-12.26-47.75-13.77-63.59-5.9-128.06-8.9-191.63-8.9h0Z"/>
  </g>
</svg>